<?xml version="1.0" ?><svg id="Christmas_Icon" style="enable-background:new 0 0 56 56;" version="1.1" viewBox="0 0 56 56" xml:space="preserve" xmlns="http://www.w3.org/2000/svg" xmlns:xlink="http://www.w3.org/1999/xlink"><style type="text/css">
	.st0{fill:#F5F5F5;stroke:#3E2723;stroke-linecap:round;stroke-linejoin:round;stroke-miterlimit:10;}
	.st1{fill:#E0E0E0;}
	.st2{fill:#8D6E63;stroke:#3E2723;stroke-linecap:round;stroke-linejoin:round;stroke-miterlimit:10;}
	.st3{fill:#5D4037;}
	.st4{fill:none;stroke:#3E2723;stroke-linecap:round;stroke-linejoin:round;stroke-miterlimit:10;}
	.st5{fill:#FFD54F;stroke:#3E2723;stroke-linecap:round;stroke-linejoin:round;stroke-miterlimit:10;}
	.st6{fill:#E53935;stroke:#3E2723;stroke-linecap:round;stroke-linejoin:round;stroke-miterlimit:10;}
	.st7{fill:#B71C1C;}
	.st8{fill:#FFA000;}
	.st9{fill:#FFECB3;stroke:#3E2723;stroke-linecap:round;stroke-linejoin:round;stroke-miterlimit:10;}
	.st10{fill:#FFE082;}
	.st11{fill:#3E2723;}
	.st12{fill:#81C784;stroke:#3E2723;stroke-linecap:round;stroke-linejoin:round;stroke-miterlimit:10;}
	.st13{fill:#43A047;}
	.st14{fill:#263238;}
	.st15{fill:#4E342E;stroke:#3E2723;stroke-linecap:round;stroke-linejoin:round;stroke-miterlimit:10;}
	.st16{fill:none;}
	.st17{fill:#A1887F;stroke:#3E2723;stroke-linecap:round;stroke-linejoin:round;stroke-miterlimit:10;}
	.st18{fill:#6D4C41;}
	.st19{fill:#6D4C41;stroke:#3E2723;stroke-linecap:round;stroke-linejoin:round;stroke-miterlimit:10;}
	.st20{fill:#E0E0E0;stroke:#3E2723;stroke-miterlimit:10;}
	.st21{fill:#D81B60;stroke:#3E2723;stroke-linecap:round;stroke-linejoin:round;stroke-miterlimit:10;}
	.st22{fill:#E0E0E0;stroke:#3E2723;stroke-linecap:round;stroke-linejoin:round;stroke-miterlimit:10;}
	.st23{fill:#FBC02D;stroke:#3E2723;stroke-linecap:round;stroke-linejoin:round;stroke-miterlimit:10;}
</style><g id="House"><path class="st0" d="M46,18.6H36V6.1c0-0.6,0.4-1,1-1h8c0.6,0,1,0.4,1,1V18.6z"/><path class="st1" d="M45,5.6h-4v12.5h4.5v-12C45.5,5.9,45.3,5.6,45,5.6z"/><path class="st2" d="M28,12.2L10,26.6v19.1c0,1.4,1.1,2.5,2.5,2.5h31c1.4,0,2.5-1.1,2.5-2.5V26.6L28,12.2z"/><path class="st3" d="M40,47.7h3.5c1.1,0,2-0.9,2-2V26.9L41,23.3v22.5C41,46.6,40.6,47.3,40,47.7z"/><line class="st4" x1="10" x2="46" y1="42.3" y2="42.3"/><line class="st4" x1="10" x2="46" y1="36.3" y2="36.3"/><line class="st4" x1="10" x2="46" y1="30.3" y2="30.3"/><line class="st4" x1="13" x2="43" y1="24.3" y2="24.3"/><line class="st4" x1="20.5" x2="35.5" y1="18.3" y2="18.3"/><g><path class="st5" d="M34,37.6H22c-0.6,0-1-0.4-1-1v-12c0-0.6,0.4-1,1-1h12c0.6,0,1,0.4,1,1v12C35,37.2,34.6,37.6,34,37.6z"/><line class="st5" x1="28" x2="28" y1="23.6" y2="37.6"/><line class="st5" x1="35" x2="21" y1="30.6" y2="30.6"/></g><path class="st0" d="M15,30.6L15,30.6c-1.4,0-2.5-1.1-2.5-2.5v-9.5h5v9.5C17.5,29.5,16.4,30.6,15,30.6z"/><g><circle class="st0" cx="15" cy="34.1" r="2.5"/></g><g><path class="st0" d="M49,28c-0.8,0-1.5-0.3-2.2-0.8L28,12.2l-18.8,15c-1.5,1.2-3.7,1-4.9-0.5s-1-3.7,0.5-4.9L25.8,5    c1.3-1,3.1-1,4.4,0l21,16.8c1.5,1.2,1.8,3.4,0.5,4.9C51,27.6,50,28,49,28z"/></g><path class="st0" d="M8,48.3v-3.5c0-1.4,1.1-2.5,2.5-2.5h7c1.4,0,2.5,1.1,2.5,2.5v0.5h5.5c1.4,0,2.5,1.1,2.5,2.5v0.5h23.5   c0.6,0,1,0.4,1,1v1.5c0,0.6-0.4,1-1,1h-47c-0.6,0-1-0.4-1-1v-1.5c0-0.6,0.4-1,1-1H8z"/><circle class="st0" cx="6.5" cy="11.7" r="1.5"/><circle class="st0" cx="12.5" cy="6.7" r="1.5"/></g></svg>